<svg width="16" height="16" viewBox="0 0 16 16" fill="none" xmlns="http://www.w3.org/2000/svg">
<g clip-path="url(#clip0_0_469)">
<path d="M2.91077 0.0491333C1.33665 0.0491333 0.0493164 1.33215 0.0493164 2.90412V13.1898C0.0493164 14.7618 1.33665 16.0491 2.91077 16.0491H13.1943C14.7663 16.0491 16.0493 14.7618 16.0493 13.1877V2.90412C16.0493 1.33215 14.7663 0.0491333 13.1943 0.0491333H2.91077ZM2.91077 1.19199H13.1943C14.1539 1.19199 14.9065 1.94671 14.9065 2.90412V13.1898C14.9065 14.1472 14.1517 14.9063 13.1943 14.9063H2.90862C2.68255 14.908 2.45839 14.8647 2.24923 14.7789C2.04006 14.6931 1.85005 14.5666 1.69029 14.4066C1.53054 14.2467 1.40421 14.0565 1.31869 13.8472C1.23317 13.638 1.19016 13.4137 1.19217 13.1877V2.90412C1.19217 1.94455 1.9512 1.19199 2.91077 1.19199ZM9.77654 2.89549C9.62499 2.89435 9.47919 2.95346 9.37122 3.05981C9.26324 3.16617 9.20194 3.31106 9.2008 3.46261C9.19966 3.61416 9.25876 3.75996 9.36512 3.86793C9.47147 3.97591 9.61636 4.03721 9.76791 4.03835L11.1868 4.08795L8.78894 6.52892C8.73318 6.58173 8.68863 6.64523 8.65797 6.71564C8.6273 6.78605 8.61114 6.86192 8.61046 6.93872C8.60977 7.01551 8.62457 7.09166 8.65398 7.1626C8.68338 7.23355 8.72678 7.29784 8.78159 7.35164C8.8364 7.40543 8.90149 7.44763 8.97298 7.4757C9.04446 7.50377 9.12087 7.51715 9.19764 7.51503C9.27441 7.51291 9.34997 7.49533 9.41979 7.46336C9.48961 7.43138 9.55228 7.38566 9.60403 7.32892L11.9846 4.90735L12.0321 6.30466C12.0375 6.45621 12.1029 6.5994 12.2139 6.70272C12.3249 6.80604 12.4724 6.86104 12.624 6.8556C12.7755 6.85017 12.9187 6.78475 13.022 6.67375C13.1254 6.56274 13.1804 6.41524 13.1749 6.26369L13.0822 3.54239C13.0822 3.16935 12.9011 2.99037 12.5302 2.99037C11.6137 2.95803 10.6908 2.92353 9.77654 2.89549ZM6.50538 8.81463L4.11616 11.2017L4.06872 9.79145C4.06329 9.6399 3.99788 9.49671 3.88687 9.39339C3.77587 9.29007 3.62836 9.23507 3.47681 9.24051C3.32526 9.24594 3.18207 9.31135 3.07875 9.42236C2.97543 9.53337 2.92043 9.68087 2.92587 9.83242L3.01859 12.5537C3.01859 12.903 3.25579 13.1057 3.57061 13.1057L6.29406 13.1985C6.44561 13.2036 6.593 13.1483 6.7038 13.0448C6.81461 12.9413 6.87975 12.798 6.8849 12.6464C6.89004 12.4949 6.83477 12.3475 6.73125 12.2367C6.62773 12.1259 6.48443 12.0607 6.33287 12.0556L4.92479 12.0082L7.31401 9.61894C7.36826 9.56628 7.41139 9.50327 7.44084 9.43363C7.4703 9.364 7.48547 9.28916 7.48547 9.21355C7.48547 9.13795 7.4703 9.06311 7.44084 8.99347C7.41139 8.92384 7.36826 8.86082 7.31401 8.80816C7.26156 8.75371 7.19859 8.71046 7.12894 8.68106C7.05928 8.65166 6.98438 8.6367 6.90877 8.63711C6.83316 8.63751 6.75842 8.65326 6.68908 8.68341C6.61974 8.71355 6.55725 8.75962 6.50538 8.81463Z" fill="#97A2B4"/>
</g>
<defs>
<clipPath id="clip0_0_469">
<rect width="16" height="16" fill="white"/>
</clipPath>
</defs>
</svg>
