<svg width="16" height="16" viewBox="0 0 16 16" fill="none" xmlns="http://www.w3.org/2000/svg">
<g clip-path="url(#clip0_0_462)">
<g clip-path="url(#clip1_0_462)">
<path d="M8.7334 0.666687C7.12123 0.674534 5.5572 1.21697 4.28636 2.209C3.01552 3.20104 2.10967 4.58663 1.71074 6.14869L1.22274 5.41069C1.17654 5.33342 1.11517 5.26632 1.04233 5.21341C0.969493 5.16051 0.886695 5.12291 0.798931 5.10287C0.711166 5.08283 0.620252 5.08078 0.531673 5.09683C0.443093 5.11289 0.358682 5.14671 0.28353 5.19627C0.208378 5.24583 0.144042 5.3101 0.0944016 5.3852C0.0447613 5.4603 0.0108451 5.54468 -0.00530177 5.63324C-0.0214486 5.7218 -0.0194916 5.81272 0.000451315 5.9005C0.0203942 5.98829 0.0579098 6.07113 0.110736 6.14402L1.5774 8.36669C1.67928 8.50925 1.82949 8.60994 2.00007 8.65002C2.17425 8.68457 2.35504 8.6499 2.50407 8.55335L4.70407 7.07135C4.77992 7.02399 4.84547 6.96184 4.89681 6.88862C4.94815 6.81539 4.98423 6.73259 5.00291 6.64513C5.02159 6.55767 5.02248 6.46735 5.00553 6.37955C4.98859 6.29174 4.95414 6.20824 4.90426 6.13401C4.85438 6.05979 4.79007 5.99636 4.71516 5.94751C4.64026 5.89865 4.55629 5.86536 4.46826 5.84962C4.38023 5.83389 4.28993 5.83602 4.20274 5.85591C4.11554 5.87579 4.03325 5.91301 3.96074 5.96535L2.96007 6.64002C3.22639 5.55895 3.79122 4.5745 4.59013 3.799C5.38903 3.0235 6.38983 2.48817 7.47834 2.2541C8.56685 2.02002 9.69924 2.09663 10.7463 2.47517C11.7934 2.85371 12.713 3.51895 13.4001 4.39498C14.0873 5.27102 14.5144 6.32257 14.6327 7.42966C14.751 8.53675 14.5557 9.6548 14.0692 10.6563C13.5826 11.6577 12.8243 12.5022 11.8809 13.0934C10.9374 13.6847 9.8468 13.9988 8.7334 14C7.77896 13.9974 6.83926 13.7644 5.99417 13.3208C5.14908 12.8772 4.4236 12.2361 3.8794 11.452C3.83066 11.3772 3.76738 11.3129 3.69332 11.263C3.61926 11.2131 3.53592 11.1786 3.44826 11.1615C3.36059 11.1444 3.27039 11.1451 3.18301 11.1636C3.09562 11.182 3.01284 11.2178 2.93957 11.2689C2.8663 11.32 2.80403 11.3852 2.75647 11.4608C2.70891 11.5364 2.67703 11.6208 2.66271 11.709C2.64839 11.7971 2.65194 11.8872 2.67313 11.974C2.69432 12.0608 2.73272 12.1424 2.78607 12.214C3.67078 13.4895 4.94129 14.4475 6.41088 14.9473C7.88046 15.4471 9.47161 15.4623 10.9505 14.9906C12.4293 14.519 13.7179 13.5855 14.6269 12.3272C15.5358 11.0689 16.0171 9.55217 16.0001 8.00002C16.0066 6.06463 15.2453 4.20565 13.883 2.83088C12.5207 1.45611 10.6688 0.677798 8.7334 0.666687Z" fill="#161C26"/>
<path d="M8.66667 3.96667C8.48986 3.96667 8.32029 4.03691 8.19526 4.16194C8.07024 4.28696 8 4.45653 8 4.63334V8.00001C8.00284 8.17624 8.07268 8.34477 8.19533 8.47134L10.1953 10.4893C10.3208 10.6129 10.4896 10.6825 10.6657 10.6834C10.8418 10.6842 11.0113 10.6163 11.138 10.494C11.2635 10.3695 11.3344 10.2003 11.3352 10.0235C11.3359 9.84673 11.2665 9.67689 11.142 9.55134L9.33333 7.72601V4.63334C9.33333 4.45653 9.2631 4.28696 9.13807 4.16194C9.01305 4.03691 8.84348 3.96667 8.66667 3.96667Z" fill="#161C26"/>
</g>
</g>
<defs>
<clipPath id="clip0_0_462">
<rect width="16" height="16" fill="white"/>
</clipPath>
<clipPath id="clip1_0_462">
<rect width="16" height="16" fill="white"/>
</clipPath>
</defs>
</svg>
