<svg width="24" height="24" viewBox="0 0 24 24" fill="none" xmlns="http://www.w3.org/2000/svg">
<path d="M23.4844 17.7656V6.23435C23.4844 5.54529 22.8891 4.98279 22.1578 4.98279H1.84219C1.11094 4.98279 0.515625 5.54529 0.515625 6.23435V17.7656C0.515625 18.4547 1.11094 19.0172 1.84219 19.0172H22.1578C22.8891 19.0172 23.4844 18.4594 23.4844 17.7656ZM1.66406 17.7656V6.23435C1.66406 6.19216 1.73438 6.13123 1.84219 6.13123H22.1578C22.2703 6.13123 22.3359 6.19685 22.3359 6.23435V17.7656C22.3359 17.8078 22.2656 17.8687 22.1578 17.8687H1.84219C1.73438 17.8687 1.66406 17.8078 1.66406 17.7656Z" fill="#161C26"/>
<path d="M4.65469 9.67498C5.05078 9.67498 5.37187 9.35388 5.37187 8.95779C5.37187 8.5617 5.05078 8.2406 4.65469 8.2406C4.2586 8.2406 3.9375 8.5617 3.9375 8.95779C3.9375 9.35388 4.2586 9.67498 4.65469 9.67498Z" fill="#161C26"/>
<path d="M7.59365 9.67498C7.98974 9.67498 8.31084 9.35388 8.31084 8.95779C8.31084 8.5617 7.98974 8.2406 7.59365 8.2406C7.19756 8.2406 6.87646 8.5617 6.87646 8.95779C6.87646 9.35388 7.19756 9.67498 7.59365 9.67498Z" fill="#161C26"/>
<path d="M10.5282 9.67498C10.9243 9.67498 11.2454 9.35388 11.2454 8.95779C11.2454 8.5617 10.9243 8.2406 10.5282 8.2406C10.1321 8.2406 9.81104 8.5617 9.81104 8.95779C9.81104 9.35388 10.1321 9.67498 10.5282 9.67498Z" fill="#161C26"/>
<path d="M13.4672 9.67498C13.8633 9.67498 14.1844 9.35388 14.1844 8.95779C14.1844 8.5617 13.8633 8.2406 13.4672 8.2406C13.0711 8.2406 12.75 8.5617 12.75 8.95779C12.75 9.35388 13.0711 9.67498 13.4672 9.67498Z" fill="#161C26"/>
<path d="M16.4062 9.67498C16.8022 9.67498 17.1233 9.35388 17.1233 8.95779C17.1233 8.5617 16.8022 8.2406 16.4062 8.2406C16.0101 8.2406 15.689 8.5617 15.689 8.95779C15.689 9.35388 16.0101 9.67498 16.4062 9.67498Z" fill="#161C26"/>
<path d="M19.3454 9.67498C19.7415 9.67498 20.0625 9.35388 20.0625 8.95779C20.0625 8.5617 19.7415 8.2406 19.3454 8.2406C18.9493 8.2406 18.6282 8.5617 18.6282 8.95779C18.6282 9.35388 18.9493 9.67498 19.3454 9.67498Z" fill="#161C26"/>
<path d="M6.12661 12.7172C6.5227 12.7172 6.8438 12.3961 6.8438 12C6.8438 11.6039 6.5227 11.2828 6.12661 11.2828C5.73052 11.2828 5.40942 11.6039 5.40942 12C5.40942 12.3961 5.73052 12.7172 6.12661 12.7172Z" fill="#161C26"/>
<path d="M9.06094 12.7172C9.45703 12.7172 9.77813 12.3961 9.77813 12C9.77813 11.6039 9.45703 11.2828 9.06094 11.2828C8.66485 11.2828 8.34375 11.6039 8.34375 12C8.34375 12.3961 8.66485 12.7172 9.06094 12.7172Z" fill="#161C26"/>
<path d="M11.9999 12.7172C12.396 12.7172 12.7171 12.3961 12.7171 12C12.7171 11.6039 12.396 11.2828 11.9999 11.2828C11.6038 11.2828 11.2827 11.6039 11.2827 12C11.2827 12.3961 11.6038 12.7172 11.9999 12.7172Z" fill="#161C26"/>
<path d="M14.9345 12.7172C15.3306 12.7172 15.6517 12.3961 15.6517 12C15.6517 11.6039 15.3306 11.2828 14.9345 11.2828C14.5384 11.2828 14.2173 11.6039 14.2173 12C14.2173 12.3961 14.5384 12.7172 14.9345 12.7172Z" fill="#161C26"/>
<path d="M17.8735 11.2828C17.475 11.2828 17.1563 11.6062 17.1563 12C17.1563 12.3984 17.4797 12.7172 17.8735 12.7172C18.2719 12.7172 18.5907 12.3937 18.5907 12C18.5907 11.6015 18.2719 11.2828 17.8735 11.2828ZM17.1235 14.4703H6.87661C6.55786 14.4703 6.30005 14.7281 6.30005 15.0468C6.30005 15.3656 6.55786 15.6234 6.87661 15.6234H17.1235C17.4422 15.6234 17.7 15.3656 17.7 15.0468C17.7 14.7281 17.4422 14.4703 17.1235 14.4703Z" fill="#161C26"/>
</svg>
