<svg width="16" height="18" viewBox="0 0 16 18" fill="none" xmlns="http://www.w3.org/2000/svg">
<path d="M11.4582 8.62078C11.4363 8.58213 11.4045 8.54998 11.3661 8.52761C11.3278 8.50524 11.2841 8.49345 11.2397 8.49345H7.94963L8.50121 4.27895C8.50713 4.22255 8.4939 4.1658 8.46364 4.11783C8.43338 4.06986 8.38786 4.03347 8.33441 4.01452C8.28095 3.99557 8.22268 3.99516 8.16896 4.01335C8.11524 4.03155 8.06921 4.06729 8.03828 4.11483L4.0372 11.1246C4.01381 11.1626 4.00098 11.2062 4.00005 11.2509C3.99913 11.2956 4.01013 11.3397 4.03193 11.3786C4.05372 11.4176 4.08553 11.4501 4.12406 11.4727C4.16259 11.4953 4.20645 11.5073 4.25112 11.5073H7.49203L7.0549 15.7281C7.05061 15.7843 7.06523 15.8403 7.09645 15.8873C7.12768 15.9342 7.1737 15.9694 7.2272 15.9871C7.2807 16.0049 7.33861 16.0043 7.3917 15.9853C7.4448 15.9664 7.49004 15.9302 7.52022 15.8826L11.4552 8.87363C11.478 8.83552 11.4903 8.79203 11.4908 8.74761C11.4914 8.70319 11.4801 8.65943 11.4582 8.62078Z" fill="#D9E0E5"/>
</svg>
